<svg width="16" height="16" viewBox="0 0 16 16" fill="none" xmlns="http://www.w3.org/2000/svg">
<path d="M8 2.49997C6.81331 2.49997 5.65327 2.85187 4.66658 3.51116C3.67988 4.17044 2.91085 5.10752 2.45672 6.20387C2.0026 7.30023 1.88378 8.50663 2.11529 9.67052C2.3468 10.8344 2.91824 11.9035 3.75736 12.7426C4.59647 13.5817 5.66557 14.1532 6.82946 14.3847C7.99334 14.6162 9.19974 14.4974 10.2961 14.0432C11.3925 13.5891 12.3295 12.8201 12.9888 11.8334C13.6481 10.8467 14 9.68666 14 8.49997C13.9982 6.90923 13.3655 5.38417 12.2406 4.25934C11.1158 3.13452 9.59074 2.50179 8 2.49997ZM8 13.5C7.01109 13.5 6.04439 13.2067 5.22215 12.6573C4.3999 12.1079 3.75904 11.327 3.3806 10.4134C3.00216 9.49976 2.90315 8.49443 3.09607 7.52452C3.289 6.55462 3.7652 5.6637 4.46447 4.96444C5.16373 4.26518 6.05464 3.78897 7.02455 3.59605C7.99445 3.40312 8.99979 3.50214 9.91342 3.88058C10.827 4.25901 11.6079 4.89988 12.1573 5.72212C12.7068 6.54437 13 7.51107 13 8.49997C12.9985 9.8256 12.4712 11.0965 11.5339 12.0339C10.5965 12.9712 9.32562 13.4985 8 13.5ZM3.85375 2.35372L1.85375 4.35372C1.75993 4.44754 1.63268 4.50025 1.5 4.50025C1.36732 4.50025 1.24007 4.44754 1.14625 4.35372C1.05243 4.2599 0.999722 4.13265 0.999722 3.99997C0.999722 3.86729 1.05243 3.74004 1.14625 3.64622L3.14625 1.64622C3.24007 1.5524 3.36732 1.49969 3.5 1.49969C3.63268 1.49969 3.75993 1.5524 3.85375 1.64622C3.94757 1.74004 4.00028 1.86729 4.00028 1.99997C4.00028 2.13265 3.94757 2.2599 3.85375 2.35372ZM14.8538 4.35372C14.8073 4.40021 14.7522 4.43709 14.6915 4.46225C14.6308 4.48741 14.5657 4.50037 14.5 4.50037C14.4343 4.50037 14.3692 4.48741 14.3085 4.46225C14.2478 4.43709 14.1927 4.40021 14.1462 4.35372L12.1462 2.35372C12.0524 2.2599 11.9997 2.13265 11.9997 1.99997C11.9997 1.86729 12.0524 1.74004 12.1462 1.64622C12.2401 1.5524 12.3673 1.49969 12.5 1.49969C12.6327 1.49969 12.7599 1.5524 12.8538 1.64622L14.8538 3.64622C14.9002 3.69266 14.9371 3.7478 14.9623 3.8085C14.9874 3.8692 15.0004 3.93427 15.0004 3.99997C15.0004 4.06568 14.9874 4.13074 14.9623 4.19144C14.9371 4.25214 14.9002 4.30729 14.8538 4.35372ZM11.5 7.99997C11.6326 7.99997 11.7598 8.05265 11.8536 8.14642C11.9473 8.24019 12 8.36736 12 8.49997C12 8.63258 11.9473 8.75976 11.8536 8.85353C11.7598 8.94729 11.6326 8.99997 11.5 8.99997H8C7.86739 8.99997 7.74021 8.94729 7.64645 8.85353C7.55268 8.75976 7.5 8.63258 7.5 8.49997V4.99997C7.5 4.86736 7.55268 4.74019 7.64645 4.64642C7.74021 4.55265 7.86739 4.49997 8 4.49997C8.13261 4.49997 8.25979 4.55265 8.35355 4.64642C8.44732 4.74019 8.5 4.86736 8.5 4.99997V7.99997H11.5Z" fill="#F5C85C"/>
</svg>
