<svg width="24" height="24" viewBox="0 0 24 24" fill="none" xmlns="http://www.w3.org/2000/svg">
<path d="M23.0466 11.4028C22.9509 11.2347 22.8227 11.0874 22.6695 10.9694C22.5162 10.8514 22.341 10.7652 22.1541 10.7156C21.4758 10.541 20.775 10.4709 20.0756 10.5075C20.4506 8.64656 20.1694 7.17469 19.8825 6.30188C19.7681 5.94334 19.5244 5.64024 19.1987 5.45167C18.873 5.2631 18.4888 5.20256 18.1209 5.28188C17.167 5.49434 16.2599 5.87942 15.4444 6.41812C14.8471 5.1981 13.9776 4.13161 12.9028 3.30094C12.6424 3.1056 12.3256 3 12 3C11.6744 3 11.3576 3.1056 11.0972 3.30094C10.0222 4.13136 9.15257 5.19792 8.55562 6.41812C7.74014 5.87942 6.83304 5.49434 5.87906 5.28188C5.51118 5.20256 5.12696 5.2631 4.80129 5.45167C4.47562 5.64024 4.23184 5.94334 4.11749 6.30188C3.83624 7.17469 3.55499 8.64563 3.92437 10.5075C3.22501 10.4709 2.52415 10.541 1.84593 10.7156C1.65898 10.7652 1.48377 10.8514 1.33053 10.9694C1.1773 11.0874 1.0491 11.2347 0.953432 11.4028C0.853312 11.575 0.788484 11.7654 0.76273 11.9629C0.736976 12.1604 0.750813 12.361 0.803432 12.5531C1.12124 13.7316 2.09718 15.9731 5.05312 17.7394C8.00906 19.5056 10.6059 19.5 12.0047 19.5C13.4034 19.5 16.005 19.5 18.9422 17.7394C21.8981 15.9731 22.8741 13.7316 23.1919 12.5531C23.2452 12.3613 23.2598 12.1609 23.2348 11.9634C23.2099 11.7659 23.1459 11.5753 23.0466 11.4028ZM5.54437 6.76312C5.54549 6.75847 5.54835 6.75442 5.55236 6.75181C5.55636 6.74919 5.56122 6.74821 5.56593 6.74906C6.43826 6.94612 7.26147 7.31834 7.98562 7.84313C7.6559 8.92177 7.49215 10.0443 7.49999 11.1722C7.49999 12.9291 7.85343 14.3597 8.35406 15.5109C7.64235 14.7986 7.02654 13.9965 6.52218 13.125C4.83281 10.1831 5.18437 7.875 5.54437 6.76312ZM5.82562 16.4522C3.32531 14.9597 2.51437 13.1297 2.24999 12.1594C2.93982 11.9895 3.65564 11.9523 4.35937 12.0497C4.59431 12.679 4.88123 13.2877 5.21718 13.8694C6.04205 15.2915 7.1227 16.5489 8.40468 17.5781C7.49817 17.3175 6.62981 16.9389 5.82187 16.4522H5.82562ZM12 17.85C11.1253 17.1994 8.99999 15.2034 8.99999 11.1722C8.99999 7.19062 11.0981 5.17875 12 4.5C12.9019 5.18062 15 7.1925 15 11.1741C15 15.2034 12.8747 17.1994 12 17.85ZM16.0144 7.84313C16.7386 7.31867 17.5618 6.94677 18.4341 6.75C18.4388 6.74915 18.4436 6.75013 18.4476 6.75275C18.4516 6.75536 18.4545 6.75941 18.4556 6.76406C18.8156 7.875 19.1672 10.1831 17.4778 13.125C16.9739 13.9977 16.3581 14.8007 15.6459 15.5138C16.1466 14.3644 16.5 12.9319 16.5 11.175C16.5081 10.0462 16.3444 8.92267 16.0144 7.84313ZM21.75 12.1613C21.4903 13.1222 20.6812 14.9559 18.1791 16.4522C17.3711 16.9386 16.5027 17.3169 15.5962 17.5772C16.8782 16.5479 17.9589 15.2906 18.7837 13.8684C19.1197 13.2867 19.4066 12.6781 19.6416 12.0487C20.3451 11.9518 21.0606 11.9897 21.75 12.1603V12.1613Z" fill="#ACDA3B"/>
</svg>
