<svg width="16" height="16" viewBox="0 0 16 16" fill="none" xmlns="http://www.w3.org/2000/svg">
<path d="M15.4744 3.82625L12.2394 2.0625C12.1661 2.02194 12.0838 2.00045 12 2H10C9.86739 2 9.74021 2.05268 9.64645 2.14645C9.55268 2.24021 9.5 2.36739 9.5 2.5C9.5 2.89782 9.34196 3.27936 9.06066 3.56066C8.77936 3.84196 8.39782 4 8 4C7.60217 4 7.22064 3.84196 6.93934 3.56066C6.65803 3.27936 6.5 2.89782 6.5 2.5C6.5 2.36739 6.44732 2.24021 6.35355 2.14645C6.25978 2.05268 6.13261 2 6 2H4C3.91602 2.00035 3.83348 2.02184 3.76 2.0625L0.525624 3.82625C0.295063 3.9481 0.122228 4.1564 0.0450184 4.40549C-0.0321913 4.65457 -0.00747434 4.92411 0.113749 5.155L1.31812 7.45563C1.4057 7.62103 1.53696 7.75925 1.69763 7.85523C1.8583 7.95121 2.04222 8.00129 2.22937 8H3.5V13C3.5 13.2652 3.60536 13.5196 3.79289 13.7071C3.98043 13.8946 4.23478 14 4.5 14H11.5C11.7652 14 12.0196 13.8946 12.2071 13.7071C12.3946 13.5196 12.5 13.2652 12.5 13V8H13.7712C13.9584 8.00129 14.1423 7.95121 14.303 7.85523C14.4637 7.75925 14.5949 7.62103 14.6825 7.45563L15.8869 5.155C16.0081 4.92403 16.0327 4.65444 15.9553 4.40534C15.878 4.15624 15.705 3.94799 15.4744 3.82625ZM2.22937 7C2.22014 7.00044 2.21105 6.99755 2.20375 6.99188L1.00562 4.70375L3.5 3.3425V7H2.22937ZM11.5 13H4.5V3H5.55C5.66536 3.56447 5.97214 4.07178 6.41846 4.43611C6.86478 4.80044 7.42323 4.99944 7.99937 4.99944C8.57551 4.99944 9.13397 4.80044 9.58029 4.43611C10.0266 4.07178 10.3334 3.56447 10.4487 3H11.5V13ZM13.7969 6.99125C13.7934 6.99437 13.7894 6.99675 13.785 6.99825C13.7806 6.99976 13.7759 7.00035 13.7712 7H12.5V3.3425L14.995 4.70375L13.7969 6.99125Z" fill="#F5C85C"/>
</svg>
